<svg width="25" height="25" viewBox="0 0 25 25" fill="none" xmlns="http://www.w3.org/2000/svg">
<g clip-path="url(#clip0_339_876)">
<path d="M8.98439 1.70874C7.77926 1.50989 6.49894 2.31408 5.97023 3.3689C5.81325 3.68207 5.79992 4.38344 5.57902 4.60897C5.40075 4.79097 4.83673 4.68625 4.58986 4.73627C3.98928 4.85796 3.42275 5.14121 2.98045 5.57056C2.38861 6.14507 2.09968 6.95303 2.09962 7.76343C2.0996 8.04351 2.27211 8.58599 2.18006 8.82915C2.09986 9.04107 1.77266 9.18213 1.61134 9.33047C1.27216 9.64239 0.970185 9.99502 0.747655 10.4001C-0.0237968 11.8047 0.0421499 13.6242 0.972318 14.9412C1.18319 15.2397 1.4263 15.5159 1.709 15.7486C1.85545 15.8692 2.10952 15.9886 2.18692 16.1704C2.26895 16.3629 2.1107 16.687 2.10155 16.8943C2.07003 17.6077 2.15796 18.2784 2.54228 18.8962C2.67229 19.1053 2.85357 19.3935 3.12501 19.4193C3.44187 19.4496 3.57118 19.1039 3.48011 18.8474C3.39777 18.6155 3.19809 18.4356 3.09212 18.2126C2.80588 17.6104 2.79453 16.8596 3.09457 16.2595C3.26051 15.9276 3.52136 15.6314 3.80861 15.399C3.99574 15.2476 4.29002 15.1259 4.28235 14.8434C4.27391 14.5325 3.97849 14.4016 3.71095 14.5015C3.31566 14.6491 2.86217 15.0507 2.68556 15.4294C0.482174 14.2013 0.530678 11.0226 2.53908 9.65532C3.04376 9.31177 3.59851 9.13575 4.19923 9.05371C4.44949 9.01953 4.76471 9.04951 4.83897 8.73804C4.90797 8.44873 4.65154 8.26875 4.39455 8.25391C3.91529 8.22622 3.43864 8.39038 2.97853 8.49585C2.66384 7.11919 3.40151 5.80449 4.834 5.50117C5.23112 5.41709 6.03483 5.74605 6.32257 5.44732C6.56788 5.19268 6.40402 4.54405 6.51115 4.19898C6.8568 3.08556 7.96549 2.33286 9.13087 2.50461C9.89259 2.61687 10.617 3.20114 10.9148 3.90601C11.0621 4.25467 11.0054 5.19405 11.5236 5.16807C12.1007 5.13916 11.8718 4.25439 11.772 3.90601C11.5008 2.96004 10.7243 2.11743 9.76564 1.85523C10.1039 1.43982 10.4716 1.0677 10.9863 0.883074C12.4637 0.353077 13.6925 1.597 13.8672 2.97827C13.6124 2.97827 13.1793 2.8956 12.9563 3.03584C12.7322 3.17675 12.7543 3.56659 12.9975 3.67445C13.2353 3.77987 13.611 3.7107 13.8672 3.7107V6.10327H11.6211C11.2608 6.10327 10.8368 6.16436 10.4981 6.01885C10.2138 5.89673 9.95695 5.6585 9.838 5.37085C9.71403 5.0711 9.73585 4.44052 9.23068 4.58199C8.93161 4.66574 8.94352 4.97554 8.97809 5.22437C9.06193 5.82759 9.39196 6.31963 9.91212 6.63701C10.3803 6.92261 10.9 6.88452 11.4258 6.88452H13.8672V13.0369H9.03322C8.66124 13.0369 7.56193 12.8399 7.57653 13.4274C7.59103 14.0085 8.65548 13.8181 9.03322 13.8181H13.8672V18.7986C12.9917 18.7986 12.0642 18.6654 11.3855 19.3442C11.1179 19.6117 10.4517 20.8607 11.1338 21.029C11.6983 21.1682 11.7121 20.1355 12.0625 19.8425C12.5405 19.4428 13.2874 19.5798 13.8672 19.5798V22.2166C13.6172 22.2166 13.2172 22.1409 12.9936 22.2668C12.7429 22.4079 12.7418 22.7955 12.9936 22.9334C13.1749 23.0328 13.4239 22.9978 13.6231 22.9978C12.6465 24.5861 10.8786 24.5249 9.76564 23.1443C10.1738 23.0715 10.6994 22.7811 10.952 22.4466C11.1277 22.2139 11.0567 21.8534 10.7415 21.7985C10.3719 21.7341 9.9526 22.226 9.61915 22.3623C8.67677 22.7475 7.63654 22.4419 6.97872 21.6775C6.72169 21.3788 6.28029 20.6491 6.43034 20.225C6.52101 19.9687 7.95148 19.4367 7.17243 19.0027C7.01647 18.9158 6.83703 18.9618 6.68947 19.0411C6.33029 19.2341 6.02565 19.4485 5.61525 19.5264C5.35392 19.576 4.9068 19.5004 4.70869 19.6987C4.14714 20.2605 5.27741 20.4121 5.61525 20.3123C5.85011 21.5766 6.33756 22.6146 7.6172 23.1223C8.00504 23.2762 8.58571 23.1897 8.92516 23.3898C9.12003 23.5046 9.23317 23.8058 9.38351 23.9744C9.7192 24.3509 10.1203 24.6551 10.5957 24.8318C11.9862 25.3486 13.6901 24.7555 14.3399 23.3884C14.6601 22.7147 14.6485 22.0163 14.6485 21.2888C15.1967 21.2888 16.0383 21.1286 16.5527 21.3183C16.8463 21.4265 17.1829 21.8283 17.3735 22.0701C17.5678 22.3166 17.3629 22.6983 17.3874 22.9978C17.4404 23.6475 18.0585 24.1465 18.7012 24.1106C19.887 24.0443 20.3719 22.495 19.3829 21.8C18.9529 21.4979 18.5124 21.7717 18.1152 21.5853C17.6878 21.3846 17.4611 20.8541 17.041 20.6256C16.4355 20.2963 15.3247 20.5076 14.6485 20.5076V18.6033C15.5483 18.6033 16.7574 18.3881 17.6249 18.6188C17.8556 18.6801 17.9518 18.9779 18.1173 19.1313C18.4495 19.4392 18.9053 19.5188 19.336 19.4119C20.6174 19.0938 20.5207 17.0962 19.1895 16.9516C18.7854 16.9077 18.3699 16.9991 18.0755 17.2939C17.922 17.4476 17.8486 17.7459 17.6243 17.8065C17.3334 17.8852 16.9509 17.822 16.6504 17.822H14.6485V15.3806H17.0899C17.4461 15.3806 17.9128 15.3005 18.2566 15.3961C18.4759 15.4571 18.555 15.7613 18.7063 15.9126C19.0273 16.2335 19.5344 16.3345 19.9707 16.2337C21.2054 15.9483 21.1536 14.0253 19.9219 13.7847C19.5078 13.7038 19.069 13.7801 18.7521 14.0714C18.5856 14.2246 18.4909 14.5224 18.2596 14.5838C17.9111 14.6765 17.4498 14.5994 17.0899 14.5994H14.6485V12.0115C14.8736 12.0115 15.2634 11.9366 15.4595 12.0617C15.8766 12.3276 15.9197 12.7633 16.5039 12.8677C16.7505 12.9118 17.0065 12.865 17.2363 12.7694C17.4471 12.6817 17.63 12.5374 17.7625 12.3514C17.8987 12.1602 17.962 11.9515 17.968 11.7185C17.98 11.2546 17.8425 10.8173 17.4315 10.5531C16.7736 10.1305 15.6887 10.3965 15.5274 11.2302H14.6485V9.17945H17.334C17.7217 9.17945 18.2308 9.09263 18.6035 9.20454C19.0179 9.32896 19.5145 10.3612 20.0084 9.98008C20.56 9.55435 19.3896 8.64473 19.043 8.47993C18.6603 8.29795 18.0907 8.3982 17.6758 8.3982H14.6485V6.88452H16.9922C17.3507 6.88452 17.7849 6.95205 18.1152 6.78687C18.7662 6.46143 19.0871 5.6374 19.7266 5.3168C20.0548 5.1522 20.4805 5.34395 20.8494 5.12891C21.8279 4.55854 21.535 2.88374 20.3613 2.78752C19.5992 2.72504 18.9563 3.21819 18.9149 4.00366C18.9026 4.23586 19.0884 4.51959 19.0231 4.73609C18.9038 5.13164 18.188 5.68653 17.8711 5.94566C17.5989 6.16822 17.2246 6.10327 16.8945 6.10327H14.6485V3.75952H15.4785C15.8191 5.51963 18.8133 4.26869 17.7193 2.63719C17.59 2.44434 17.401 2.29257 17.1875 2.20215C16.9465 2.10012 16.6645 2.07014 16.4063 2.11542C15.8452 2.21381 15.7805 2.68663 15.3705 2.92809C15.183 3.03847 14.859 2.97827 14.6485 2.97827C14.6382 1.73555 13.9119 0.625393 12.7442 0.168887C11.4315 -0.34428 9.41012 0.234291 8.98439 1.70874Z" fill="#FD7E14"/>
<path d="M8.64258 3.09867C8.0711 3.20149 7.61212 3.55785 7.40333 4.10138C7.27842 4.42654 7.23365 5.05094 7.76295 4.96838C8.12789 4.91149 8.10245 4.39097 8.31685 4.15533C8.58384 3.86199 9.01075 3.98398 9.25616 3.73841C9.69293 3.30137 8.99547 3.03518 8.64258 3.09867Z" fill="#FD7E14"/>
<path d="M20.0203 3.60038C19.4502 3.82204 19.7906 4.68254 20.3594 4.4731C20.9179 4.26741 20.5828 3.38169 20.0203 3.60038Z" fill="white"/>
<path d="M16.4556 2.86649C15.8855 3.08815 16.226 3.94865 16.7948 3.73921C17.3533 3.53352 17.0181 2.6478 16.4556 2.86649Z" fill="white"/>
<path d="M5.03005 6.42645C4.71011 6.48383 4.57434 6.88617 4.84516 7.09916C5.11321 7.31005 5.55671 7.24593 5.8592 7.45067C6.67571 8.00331 6.78337 9.14672 6.00398 9.78871C5.68025 10.0554 4.99831 10.0139 4.7726 10.3134C4.5528 10.6051 4.8155 10.917 5.12698 10.9306C6.54573 10.9922 7.56931 9.52084 7.29909 8.20267C7.10359 7.24882 6.0862 6.237 5.03005 6.42645ZM22.0215 6.42133C20.4264 6.76215 20.9567 9.24974 22.5586 8.90238C24.1621 8.55472 23.6308 6.07748 22.0215 6.42133Z" fill="#FD7E14"/>
<path d="M22.1687 7.21004C21.5988 7.3762 21.8289 8.26917 22.4119 8.11277C22.9916 7.95726 22.7465 7.04163 22.1687 7.21004Z" fill="white"/>
<path d="M9.66797 8.63323C9.19648 8.6513 9.19673 9.67586 8.96289 10.0096C8.70063 10.3839 8.35068 10.6574 7.91016 10.7888C7.68984 10.8545 7.37212 10.8258 7.18496 10.9668C6.87363 11.2013 7.08906 11.618 7.42192 11.6603C8.44351 11.7903 9.49072 10.9411 9.86948 10.0584C10.0113 9.72796 10.3301 8.60794 9.66797 8.63323ZM11.3796 8.7763C11.1198 8.88319 11.0715 9.26317 11.2929 9.43626C11.6919 9.74818 12.4563 9.66722 12.3606 10.4491C12.2702 11.1879 11.5295 10.9637 11.2236 11.3879C10.8405 11.9192 11.6328 12.0243 11.9629 11.9394C12.9384 11.6882 13.4254 10.5743 13.0118 9.6678C12.7793 9.15838 11.9871 8.5265 11.3796 8.7763ZM21.1433 10.7283C20.899 10.7575 20.7532 10.9999 20.8373 11.2303C20.9629 11.5746 21.3949 11.7239 21.5229 12.0604C21.6043 12.2745 21.4644 12.603 21.4934 12.8416C21.5754 13.5162 22.239 13.986 22.9004 13.9069C24.03 13.7716 24.423 12.2617 23.4863 11.6038C23.2668 11.4496 22.9723 11.3659 22.7051 11.3813C22.5392 11.3909 22.3029 11.5061 22.1473 11.4267C21.8027 11.2509 21.599 10.6737 21.1433 10.7283Z" fill="#FD7E14"/>
<path d="M16.5535 11.1689C15.9741 11.3892 16.3227 12.2837 16.8926 12.0483C17.4427 11.8211 17.1057 10.9589 16.5535 11.1689Z" fill="white"/>
<path d="M3.17404 11.4665C2.43277 11.5281 3.01887 12.7923 3.24849 13.0855C3.79045 13.7776 5.07425 14.0338 5.90799 13.7902C6.22459 13.6977 6.34822 13.2219 6.00061 13.0731C5.36516 12.8012 4.6599 13.241 4.05351 12.7279C3.71605 12.4423 3.65753 11.4263 3.17404 11.4665Z" fill="#FD7E14"/>
<path d="M22.6563 12.188C22.0546 12.3308 22.2655 13.2441 22.8515 13.1047C23.442 12.9644 23.2383 12.0498 22.6563 12.188ZM19.4343 14.5869C18.8549 14.8142 19.2562 15.6849 19.8197 15.4365C20.3682 15.1946 19.9845 14.3711 19.4343 14.5869Z" fill="white"/>
<path d="M6.00588 15.7434C5.31847 15.837 4.69224 16.1715 4.4167 16.8457C4.28408 17.1702 4.04909 18.0634 4.68733 18.0018C5.05529 17.9663 5.01486 17.5453 5.113 17.2851C5.23405 16.9642 5.48962 16.7135 5.81056 16.5924C6.5717 16.3053 7.68952 16.5039 8.49611 16.5039C8.76984 16.5039 9.28254 16.6015 9.51037 16.4256C9.84684 16.1658 9.56789 15.7618 9.22848 15.7277C8.23263 15.6278 6.99694 15.6084 6.00588 15.7434ZM10.6465 15.7545C10.3177 15.863 10.2542 16.3276 10.5979 16.4676C10.9503 16.6112 12.0462 16.6113 12.4014 16.4744C12.7551 16.3381 12.6835 15.8615 12.3528 15.7545C11.9627 15.6282 11.0359 15.6259 10.6465 15.7545ZM23.2422 15.7967C21.616 16.1442 22.2031 18.6318 23.8281 18.2608C25.4138 17.8987 24.8253 15.4585 23.2422 15.7967Z" fill="#FD7E14"/>
<path d="M23.3894 16.5853C22.8183 16.7517 23.0544 17.6424 23.6326 17.488C24.2348 17.3272 23.9694 16.4162 23.3894 16.5853Z" fill="white"/>
<path d="M7.62005 17.4189C7.37302 17.5217 7.3344 17.8684 7.53318 18.0387C7.69988 18.1815 7.95828 18.1559 8.15432 18.2363C8.56882 18.4064 8.86482 18.8357 8.83318 19.2869C8.80471 19.693 8.48562 20.0711 8.10549 20.2025C7.90325 20.2724 7.64793 20.2483 7.49602 20.4236C7.0906 20.8913 7.81697 21.0888 8.15432 21.0196C9.27713 20.7895 9.93342 19.572 9.49934 18.5057C9.24641 17.8844 8.35911 17.1112 7.62005 17.4189Z" fill="#FD7E14"/>
<path d="M18.8009 17.7661C18.239 18.0063 18.6289 18.8411 19.1874 18.6157C19.7519 18.3878 19.3514 17.5307 18.8009 17.7661Z" fill="white"/>
<path d="M21.7774 19.6014C20.0817 19.8482 20.4883 22.3856 22.168 22.1029C23.7289 21.8403 23.3491 19.3726 21.7774 19.6014Z" fill="#FD7E14"/>
<path d="M21.875 20.3964C21.2665 20.4674 21.3776 21.3959 21.9727 21.3246C22.5765 21.2522 22.477 20.3261 21.875 20.3964ZM18.5066 22.3954C17.9187 22.5769 18.2299 23.4824 18.7981 23.2818C19.3684 23.0805 19.0696 22.2215 18.5066 22.3954Z" fill="white"/>
</g>
<defs>
<clipPath id="clip0_339_876">
<rect width="25" height="25" fill="white"/>
</clipPath>
</defs>
</svg>
